<?xml version="1.0" encoding="UTF-8"?> <svg xmlns="http://www.w3.org/2000/svg" width="1680" height="900" viewBox="0 0 1680 900" fill="none"> <g clip-path="url(#clip0)"> <rect width="1680" height="900" fill="white"></rect> <path d="M38 656L-162 128.5H-184.5L-315 -202L1826 -245.5C2049.33 -84.1667 2348.8 281.6 1760 454C1024 669.5 853 753.5 503 849.5C223 926.3 76.333 752.5 38 656Z" fill="url(#paint0_linear)"></path> <path opacity="0.2" d="M-198.5 292C71.2911 292 290 73.2911 290 -196.5C290 -466.291 71.2911 -685 -198.5 -685C-468.291 -685 -687 -466.291 -687 -196.5C-687 73.2911 -468.291 292 -198.5 292Z" stroke="url(#paint1_linear)" stroke-width="350"></path> <path opacity="0.2" d="M1627.5 2061C2148.03 2061 2570 1639.03 2570 1118.5C2570 597.972 2148.03 176 1627.5 176C1106.97 176 685 597.972 685 1118.5C685 1639.03 1106.97 2061 1627.5 2061Z" stroke="url(#paint2_linear)" stroke-width="350"></path> </g> <defs> <linearGradient id="paint0_linear" x1="846.5" y1="-1005" x2="-815.5" y2="341.5" gradientUnits="userSpaceOnUse"> <stop stop-color="#A548C5"></stop> <stop offset="1" stop-color="#252DFC"></stop> </linearGradient> <linearGradient id="paint1_linear" x1="506.852" y1="-374.101" x2="-687" y2="326.199" gradientUnits="userSpaceOnUse"> <stop stop-color="white" stop-opacity="0.63"></stop> <stop offset="1" stop-color="white" stop-opacity="0.25"></stop> </linearGradient> <linearGradient id="paint2_linear" x1="2988.39" y1="775.841" x2="685" y2="2126.98" gradientUnits="userSpaceOnUse"> <stop stop-color="white" stop-opacity="0.63"></stop> <stop offset="1" stop-color="white" stop-opacity="0.25"></stop> </linearGradient> <clipPath id="clip0"> <rect width="1680" height="900" fill="white"></rect> </clipPath> </defs> </svg> 